<svg xmlns="http://www.w3.org/2000/svg" xmlns:xlink="http://www.w3.org/1999/xlink" width="24" height="24" viewBox="0 0 24 24">
    <defs>
        <path id="a" d="M17 9a1 1 0 0 1 0 2H3a1 1 0 0 1 0-2h14zm4-4a1 1 0 0 1 0 2H3a1 1 0 1 1 0-2h18zm0 8a1 1 0 0 1 0 2H3a1 1 0 0 1 0-2h18zm-4 4a1 1 0 0 1 0 2H3a1 1 0 0 1 0-2h14z"/>
    </defs>
    <g fill="none" fill-rule="evenodd">
        <mask id="b" fill="#fff">
            <use xlink:href="#a"/>
        </mask>
        <use fill="#000" fill-rule="nonzero" xlink:href="#a"/>
        <g fill="#000" mask="url(#b)">
            <path d="M0 0h24v24H0z"/>
        </g>
    </g>
</svg>
