<svg xmlns="http://www.w3.org/2000/svg" width="80" height="80" viewBox="0 0 80 80">
    <g fill="none" fill-rule="evenodd">
        <circle cx="40" cy="40" r="40"/>
        <path fill="#FFE682" d="M40 31l-30 3.778V46.11c2.07 0 3.75 1.692 3.75 3.778 0 2.086-1.68 3.778-3.75 3.778V65h11.25c0-2.086 1.68-3.778 3.75-3.778 2.07 0 3.75 1.692 3.75 3.778h22.5c0-2.086 1.68-3.778 3.75-3.778 2.07 0 3.75 1.692 3.75 3.778H70V34.778L40 31z"/>
        <path fill="#FFD200" d="M49.375 14l-5.969 3.183c.219.485.344 1.022.344 1.59 0 2.108-1.68 3.818-3.75 3.818-1.372 0-2.568-.753-3.222-1.872L10 35h60c0-11.598-9.234-21-20.625-21M44 49a4 4 0 1 1-8 0 4 4 0 0 1 8 0"/>
        <path fill="#FFD200" d="M29 34a4 4 0 1 1-8 0 4 4 0 0 1 8 0M59 34a4 4 0 1 1-8 0 4 4 0 0 1 8 0"/>
    </g>
</svg>
