<svg xmlns="http://www.w3.org/2000/svg" width="80" height="80" viewBox="0 0 80 80">
    <g fill="none" fill-rule="evenodd">
        <circle cx="40" cy="40" r="40"/>
        <path fill="#FFD200" fill-rule="nonzero" d="M29.585 66.811c-4.251 4.252-11.145 4.252-15.396 0-4.252-4.251-4.252-11.145 0-15.396l36.29-36.29c4.252-4.252 11.145-4.252 15.397 0 4.251 4.25 4.251 11.144 0 15.396l-36.29 36.29z"/>
        <path fill="#56D86C" d="M14.155 51.613l15.232 15.232c-4.206 4.207-11.026 4.207-15.232 0-4.207-4.206-4.207-11.026 0-15.232"/>
        <path fill="#56D86C" d="M54.548 49.904H31.195L43.77 10 13.903 52.04l14.238 16.025z"/>
    </g>
</svg>
