<svg xmlns="http://www.w3.org/2000/svg" width="44" height="44" viewBox="0 0 44 44">
    <g fill="none" fill-rule="evenodd">
        <circle cx="22" cy="22" r="22" fill="#818181" fill-rule="nonzero"/>
        <path stroke="#E8E8F0" stroke-linecap="round" stroke-linejoin="round" stroke-width="2" d="M9.31 22.12c0 6.964 5.645 12.61 12.61 12.61s12.612-5.646 12.612-12.61"/>
        <g fill="#E8E8F0">
            <path d="M41.916 12.32a5.092 5.092 0 0 0-6.677-6.645 5.092 5.092 0 0 0-9.418.007c-.537 1.3-.453 2.676.047 3.88l4.367 8.81 8.488-3.131a5.086 5.086 0 0 0 3.193-2.922zM2.05 12.32a5.092 5.092 0 0 1 6.677-6.645 5.092 5.092 0 0 1 9.419.007c.535 1.3.453 2.676-.048 3.88l-4.365 8.81-8.489-3.131a5.084 5.084 0 0 1-3.194-2.922z"/>
        </g>
    </g>
</svg>
