<svg xmlns="http://www.w3.org/2000/svg" xmlns:xlink="http://www.w3.org/1999/xlink" width="24" height="24" viewBox="0 0 24 24">
    <defs>
        <path id="a" d="M11.988 0C5.364 0 0 5.376 0 12s5.364 12 11.988 12C18.624 24 24 18.624 24 12S18.624 0 11.988 0zM12 22C6.475 22 2 17.525 2 12S6.475 2 12 2s10 4.475 10 10-4.475 10-10 10zm4-11c1.107 0 2-.893 2-2s-.893-2-2-2-2 .893-2 2 .893 2 2 2zm-8 0c1.107 0 2-.893 2-2s-.893-2-2-2-2 .893-2 2 .893 2 2 2zm4 8c2.736 0 5.06-1.669 6-4H6c.94 2.331 3.264 4 6 4z"/>
    </defs>
    <use fill="#FFF" fill-rule="nonzero" xlink:href="#a"/>
</svg>
