<svg xmlns="http://www.w3.org/2000/svg" width="80" height="80" viewBox="0 0 80 80">
    <g fill="none" fill-rule="evenodd">
        <circle cx="40" cy="40" r="40" fill-rule="nonzero"/>
        <path fill="#EFF0F3" d="M69.944 40c0 17.673-14.315 32-31.972 32C20.314 72 6 57.673 6 40 6 22.327 20.314 8 37.972 8c17.657 0 31.972 14.327 31.972 32"/>
        <path fill="#FFF" d="M58.66 40c0 11.435-9.263 20.706-20.688 20.706-11.425 0-20.688-9.27-20.688-20.706 0-11.435 9.263-20.706 20.688-20.706 11.425 0 20.688 9.27 20.688 20.706"/>
        <path fill="#FFD200" d="M26.688 21.176c0 5.199-4.21 9.412-9.404 9.412-5.193 0-9.403-4.213-9.403-9.412 0-5.198 4.21-9.411 9.403-9.411 5.194 0 9.404 4.213 9.404 9.411"/>
        <path fill="#FFE682" d="M24.807 21.176c0 4.159-3.368 7.53-7.523 7.53-4.154 0-7.523-3.371-7.523-7.53 0-4.158 3.369-7.529 7.523-7.529 4.155 0 7.523 3.371 7.523 7.53"/>
        <path fill="#FF4C43" d="M72.765 40h-8.463l3.662-7.33a3.76 3.76 0 0 1 3.364-2.082h6.139L72.765 40z"/>
        <path fill="#FF8080" d="M44.554 24.941H26.688l3.662-7.33a3.76 3.76 0 0 1 3.364-2.082h15.542l-4.702 9.412zM72.765 40h-8.463l3.662 7.33a3.76 3.76 0 0 0 3.364 2.082h6.139L72.765 40zM53.018 51.294h-6.583l3.662 7.33a3.76 3.76 0 0 0 3.364 2.082h4.258l-4.701-9.412z"/>
        <path fill="#FF8080" d="M7.88 40c4.344 11.005 15.333 18.824 28.211 18.824 12.879 0 23.868-7.819 28.21-18.824H7.882z"/>
        <path fill="#FF4C43" d="M64.302 40c-4.343-11.005-15.332-18.824-28.21-18.824-12.88 0-23.868 7.819-28.211 18.824H64.3z"/>
        <path fill="#FF4C43" d="M22.926 40a3.763 3.763 0 0 1-3.761 3.765A3.763 3.763 0 0 1 15.404 40a3.763 3.763 0 0 1 3.76-3.765A3.763 3.763 0 0 1 22.927 40"/>
        <path fill="#FF8080" d="M21.046 40a1.882 1.882 0 1 1-3.764.001A1.882 1.882 0 0 1 21.046 40"/>
    </g>
</svg>
