<svg xmlns="http://www.w3.org/2000/svg" width="80" height="80" viewBox="0 0 80 80">
    <g fill="none" fill-rule="evenodd">
        <path fill="#90B4F0" d="M40 67.813a2.5 2.5 0 0 1-2.5-2.5v-47.5a2.5 2.5 0 0 1 5 0v47.5a2.5 2.5 0 0 1-2.5 2.5M50 67.813a2.5 2.5 0 0 1-2.5-2.5v-32.5a2.5 2.5 0 0 1 5 0v32.5a2.5 2.5 0 0 1-2.5 2.5M60 67.813a2.5 2.5 0 0 1-2.5-2.5v-17.5a2.5 2.5 0 0 1 5 0v17.5a2.5 2.5 0 0 1-2.5 2.5M30 67.813a2.5 2.5 0 0 1-2.5-2.5v-32.5a2.5 2.5 0 0 1 5 0v32.5a2.5 2.5 0 0 1-2.5 2.5M20 67.813a2.5 2.5 0 0 1-2.5-2.5v-17.5a2.5 2.5 0 0 1 5 0v17.5a2.5 2.5 0 0 1-2.5 2.5"/>
        <path fill="#F4F5F8" d="M73.75 71H6.25C2.798 71 0 68.314 0 65s2.798-6 6.25-6h67.5c3.452 0 6.25 2.686 6.25 6s-2.798 6-6.25 6"/>
        <path fill="#90B4F0" d="M60 35.31a2.5 2.5 0 0 1-2.5-2.5c0-1.378-1.122-2.5-2.5-2.5a2.503 2.503 0 0 0-2.5 2.5 2.5 2.5 0 0 1-5 0c0-4.136 3.365-7.5 7.5-7.5s7.5 3.364 7.5 7.5a2.5 2.5 0 0 1-2.5 2.5M30 35.31a2.5 2.5 0 0 1-2.5-2.5c0-1.378-1.122-2.5-2.5-2.5a2.503 2.503 0 0 0-2.5 2.5 2.5 2.5 0 0 1-5 0c0-4.136 3.365-7.5 7.5-7.5s7.5 3.364 7.5 7.5a2.5 2.5 0 0 1-2.5 2.5M50 20.31a2.5 2.5 0 0 1-2.5-2.5c0-1.378-1.121-2.5-2.5-2.5a2.503 2.503 0 0 0-2.5 2.5 2.5 2.5 0 0 1-5 0c0-4.136 3.365-7.5 7.5-7.5 4.136 0 7.5 3.364 7.5 7.5a2.5 2.5 0 0 1-2.5 2.5"/>
        <path fill="#90B4F0" d="M40 20.31a2.5 2.5 0 0 1-2.5-2.5c0-1.378-1.122-2.5-2.5-2.5a2.503 2.503 0 0 0-2.5 2.5 2.5 2.5 0 0 1-5 0c0-4.136 3.365-7.5 7.5-7.5s7.5 3.364 7.5 7.5a2.5 2.5 0 0 1-2.5 2.5M70 50.311a2.5 2.5 0 0 1-2.5-2.5c0-1.378-1.122-2.5-2.5-2.5a2.503 2.503 0 0 0-2.5 2.5 2.5 2.5 0 0 1-5 0c0-4.135 3.365-7.5 7.5-7.5s7.5 3.365 7.5 7.5a2.5 2.5 0 0 1-2.5 2.5M20 50.311a2.5 2.5 0 0 1-2.5-2.5c0-1.378-1.122-2.5-2.5-2.5a2.503 2.503 0 0 0-2.5 2.5 2.5 2.5 0 0 1-5 0c0-4.135 3.365-7.5 7.5-7.5s7.5 3.365 7.5 7.5a2.5 2.5 0 0 1-2.5 2.5"/>
    </g>
</svg>
