<svg xmlns="http://www.w3.org/2000/svg" width="32" height="32" viewBox="0 0 32 32">
    <path fill="#252C32" fill-rule="evenodd" d="M29.35 6.88l-4.24-4.25a3 3 0 0 0-4.23 0l-6.24 6.18a3 3 0 0 0 0 4.25l1.44 1.45-1.54 1.54-1.42-1.42a3 3 0 0 0-4.24 0L2.65 20.8a3 3 0 0 0 0 4.26l4.23 4.24a3 3 0 0 0 2.12.87 3 3 0 0 0 2.11-.86l6.23-6.19a3 3 0 0 0 .9-2.12 3 3 0 0 0-.88-2.13L16 17.46l1.54-1.54 1.39 1.38a3 3 0 0 0 4.23 0l6.23-6.18A2.94 2.94 0 0 0 30.23 9a3 3 0 0 0-.88-2.12zM15.94 20.29a1 1 0 0 1 .3.71 1 1 0 0 1-.3.7l-6.23 6.19a1 1 0 0 1-1.41 0l-4.24-4.25a1 1 0 0 1-.3-.71 1 1 0 0 1 .3-.71L10.29 16a1 1 0 0 1 1.41 0l1.42 1.42-2.83 2.83 1.42 1.42 2.83-2.83 1.4 1.45zm12-10.58l-6.24 6.18a1 1 0 0 1-1.41 0l-1.38-1.38 2.8-2.8-1.42-1.42-2.8 2.8-1.44-1.44a1 1 0 0 1 0-1.42l6.23-6.18a1 1 0 0 1 .72-.29 1 1 0 0 1 .71.29l4.24 4.24a1 1 0 0 1 0 1.42h-.01z"/>
</svg>
