<svg xmlns="http://www.w3.org/2000/svg" width="80" height="80" viewBox="0 0 80 80">
    <g fill="none" fill-rule="evenodd">
        <circle cx="40" cy="40" r="40" fill-rule="nonzero"/>
        <path fill="#212121" fill-rule="nonzero" d="M59.303 12.627a5.635 5.635 0 0 1 7.97 7.97L20.495 67.372a5.635 5.635 0 1 1-7.97-7.97l46.777-46.776z"/>
        <path fill="#212121" d="M71.708 40c0 17.567-14.241 31.808-31.809 31.808-17.567 0-31.808-14.24-31.808-31.808 0-17.567 14.24-31.808 31.808-31.808 17.568 0 31.809 14.24 31.809 31.808"/>
        <path fill="#FFD200" d="M62.327 26.46C57.737 18.875 49.41 13.805 39.9 13.805c-14.468 0-26.195 11.728-26.195 26.195 0 9.511 5.07 17.839 12.654 22.427L62.327 26.46z"/>
        <path fill="#FC9E2D" d="M30.544 45.613a5.613 5.613 0 1 1-11.227 0 5.613 5.613 0 0 1 11.227 0M51.126 25.031a5.613 5.613 0 1 1-11.227 0 5.613 5.613 0 0 1 11.227 0M34.286 28.774a5.613 5.613 0 1 1-11.227 0 5.613 5.613 0 0 1 11.227 0"/>
        <path fill="#FFE682" d="M26.36 62.427L62.326 26.46a26.07 26.07 0 0 0-13.54-3.767c-14.467 0-26.195 11.728-26.195 26.195 0 4.955 1.377 9.588 3.767 13.54"/>
    </g>
</svg>
