<svg xmlns="http://www.w3.org/2000/svg" width="80" height="80" viewBox="0 0 80 80">
    <g fill="none" fill-rule="evenodd">
        <circle cx="40" cy="40" r="40" fill-rule="nonzero"/>
        <circle cx="32" cy="32" r="32" fill="#EFF0F3" fill-rule="nonzero" transform="translate(8 8)"/>
        <path fill="#FFF" d="M60.321 39.766c0 11.352-9.202 20.555-20.555 20.555-11.352 0-20.554-9.203-20.554-20.555s9.202-20.554 20.554-20.554c11.353 0 20.555 9.202 20.555 20.554"/>
        <path fill="#FFD200" d="M39.766 22.949c-9.273 0-16.817 7.544-16.817 16.817 0 9.274 7.544 16.818 16.817 16.818 9.274 0 16.818-7.544 16.818-16.818 0-9.273-7.544-16.817-16.818-16.817m0 37.372c-11.334 0-20.554-9.22-20.554-20.555 0-11.334 9.22-20.555 20.554-20.555 11.334 0 20.555 9.221 20.555 20.555s-9.22 20.555-20.555 20.555"/>
        <path fill="#FFE682" d="M39.766 26.686c-7.212 0-13.08 5.868-13.08 13.08 0 7.213 5.868 13.08 13.08 13.08 7.213 0 13.08-5.867 13.08-13.08 0-7.212-5.867-13.08-13.08-13.08m0 29.898c-9.273 0-16.817-7.544-16.817-16.818 0-9.273 7.544-16.817 16.817-16.817 9.274 0 16.818 7.544 16.818 16.817 0 9.274-7.544 16.818-16.818 16.818"/>
        <path fill="#FFD200" d="M39.766 30.423c-5.151 0-9.343 4.191-9.343 9.343s4.192 9.343 9.343 9.343c5.152 0 9.343-4.191 9.343-9.343s-4.191-9.343-9.343-9.343m0 22.423c-7.212 0-13.08-5.867-13.08-13.08 0-7.212 5.868-13.08 13.08-13.08 7.213 0 13.08 5.868 13.08 13.08 0 7.213-5.867 13.08-13.08 13.08"/>
        <path fill="#FFE682" d="M39.766 34.16a5.612 5.612 0 0 0-5.606 5.606 5.612 5.612 0 0 0 5.606 5.606 5.612 5.612 0 0 0 5.606-5.606 5.612 5.612 0 0 0-5.606-5.606m0 14.95c-5.151 0-9.343-4.192-9.343-9.344 0-5.152 4.192-9.343 9.343-9.343 5.152 0 9.343 4.191 9.343 9.343s-4.191 9.343-9.343 9.343"/>
        <path fill="#FFE682" d="M43.504 39.766a3.737 3.737 0 1 1-7.475 0 3.737 3.737 0 0 1 7.475 0"/>
        <path fill="#FFD200" d="M39.766 37.898a1.87 1.87 0 0 0-1.868 1.868 1.87 1.87 0 0 0 1.868 1.869 1.87 1.87 0 0 0 1.869-1.869 1.87 1.87 0 0 0-1.869-1.868m0 7.474a5.612 5.612 0 0 1-5.606-5.606 5.612 5.612 0 0 1 5.606-5.606 5.612 5.612 0 0 1 5.606 5.606 5.612 5.612 0 0 1-5.606 5.606"/>
        <path fill="#56D86C" d="M60.321 19.212v3.737a9.343 9.343 0 0 1-9.343 9.343h-3.737v-3.737a9.343 9.343 0 0 1 9.343-9.343h3.737z"/>
        <path fill="#BEC8CA" d="M69.665 71.533c-.478 0-.957-.183-1.322-.547L50.581 53.224a1.869 1.869 0 0 1 2.643-2.643l17.762 17.762a1.868 1.868 0 0 1-1.321 3.19M47.278 53.498a.93.93 0 0 1-.66-.274l-6.607-6.607a.934.934 0 1 1 1.32-1.32l6.608 6.606a.934.934 0 0 1-.66 1.595"/>
        <path fill="#BEC8CA" d="M49.92 50.855a.93.93 0 0 1-.66-.274l-6.607-6.607a.934.934 0 1 1 1.322-1.32l6.606 6.606a.934.934 0 0 1-.66 1.595M52.563 48.212a.93.93 0 0 1-.66-.274l-6.607-6.606a.934.934 0 1 1 1.32-1.321l6.608 6.606a.934.934 0 0 1-.66 1.595"/>
        <path fill="#BEC8CA" d="M53.224 46.617a4.672 4.672 0 0 1-6.607 6.607l6.607-6.607z"/>
        <path fill="#BEC8CA" d="M49.92 45.957a.934.934 0 1 1-1.32 1.32L47.277 48.6a.935.935 0 0 1-1.321 1.322l-1.321 1.32 1.981 1.983 6.607-6.607-1.982-1.982-1.321 1.322z"/>
    </g>
</svg>
