<svg xmlns="http://www.w3.org/2000/svg" width="80" height="80" viewBox="0 0 80 80">
    <g fill="none" fill-rule="evenodd">
        <path fill="#212121" d="M39.667 8c17.673 0 32 14.136 32 31.573 0 17.438-14.327 31.574-32 31.574-17.673 0-32-14.136-32-31.574C7.667 22.136 21.994 8 39.667 8"/>
        <path fill="#212121" d="M78.224 44.012C77.126 45.207 75.61 46 73.935 46H6.065C2.715 46 0 43.146 0 39.5S2.716 33 6.065 33h67.87C77.285 33 80 35.827 80 39.473c0 1.822-.679 3.345-1.776 4.54"/>
        <path fill="#FFF" d="M63.56 39.787c0 13.078-10.697 23.68-23.893 23.68-13.196 0-23.894-10.602-23.894-23.68s10.698-23.68 23.894-23.68c13.196 0 23.893 10.602 23.893 23.68"/>
        <path fill="#FFD235" d="M25.8 25.92c-7.658 0-13.867 6.208-13.867 13.867 0 7.658 6.209 13.866 13.867 13.866 7.658 0 13.867-6.208 13.867-13.866 0-7.659-6.209-13.867-13.867-13.867"/>
        <path fill="#FB6ABB" d="M25.8 29.333c-5.773 0-10.453 4.585-10.453 10.24 0 5.656 4.68 10.24 10.453 10.24s10.453-4.584 10.453-10.24c0-5.655-4.68-10.24-10.453-10.24"/>
        <path fill="#FFF" d="M25.8 35.307c-2.474 0-4.48 1.91-4.48 4.266 0 2.357 2.006 4.267 4.48 4.267 2.474 0 4.48-1.91 4.48-4.267 0-2.356-2.006-4.266-4.48-4.266"/>
        <path fill="#FBADD9" d="M26.867 32.32a1.28 1.28 0 1 1-2.56 0 1.28 1.28 0 0 1 2.56 0M26.867 46.827a1.28 1.28 0 1 1-2.56 0 1.28 1.28 0 0 1 2.56 0M18.333 38.293a1.28 1.28 0 1 1 0 2.56 1.28 1.28 0 0 1 0-2.56M33.267 38.293a1.28 1.28 0 1 1 0 2.56 1.28 1.28 0 0 1 0-2.56M21.372 33.548a1.28 1.28 0 1 1-1.81 1.81 1.28 1.28 0 0 1 1.81-1.81M32.038 43.788a1.28 1.28 0 1 1-1.81 1.81 1.28 1.28 0 0 1 1.81-1.81M19.562 43.788a1.28 1.28 0 1 1 1.81 1.81 1.28 1.28 0 0 1-1.81-1.81M30.228 33.548a1.28 1.28 0 1 1 1.81 1.81 1.28 1.28 0 0 1-1.81-1.81"/>
        <path fill="#FFD235" d="M53.533 25.92c-7.658 0-13.866 6.208-13.866 13.867 0 7.658 6.208 13.866 13.866 13.866 7.659 0 13.867-6.208 13.867-13.866 0-7.659-6.208-13.867-13.867-13.867"/>
        <path fill="#FB6ABB" d="M53.533 29.333c-5.773 0-10.453 4.585-10.453 10.24 0 5.656 4.68 10.24 10.453 10.24 5.774 0 10.454-4.584 10.454-10.24 0-5.655-4.68-10.24-10.454-10.24"/>
        <path fill="#FFF" d="M53.533 35.307c-2.474 0-4.48 1.91-4.48 4.266 0 2.357 2.006 4.267 4.48 4.267 2.475 0 4.48-1.91 4.48-4.267 0-2.356-2.005-4.266-4.48-4.266"/>
        <path fill="#FBADD9" d="M55.027 32.32a1.28 1.28 0 1 1-2.56 0 1.28 1.28 0 0 1 2.56 0M55.027 46.827a1.28 1.28 0 1 1-2.56 0 1.28 1.28 0 0 1 2.56 0M46.493 38.293a1.28 1.28 0 1 1 0 2.56 1.28 1.28 0 0 1 0-2.56M61 38.293a1.28 1.28 0 1 1 0 2.56 1.28 1.28 0 0 1 0-2.56M49.532 33.548a1.28 1.28 0 1 1-1.81 1.81 1.28 1.28 0 0 1 1.81-1.81M59.772 43.788a1.28 1.28 0 1 1-1.81 1.81 1.28 1.28 0 0 1 1.81-1.81M47.722 43.788a1.28 1.28 0 1 1 1.81 1.81 1.28 1.28 0 0 1-1.81-1.81M57.962 33.548a1.28 1.28 0 1 1 1.81 1.81 1.28 1.28 0 0 1-1.81-1.81"/>
    </g>
</svg>
