<svg xmlns="http://www.w3.org/2000/svg" width="80" height="80" viewBox="0 0 80 80">
    <g fill="none" fill-rule="evenodd">
        <circle cx="40" cy="40" r="40"/>
        <path fill="#FFE682" d="M40.433 10.839a3.708 3.708 0 1 1 7.415 0 3.708 3.708 0 0 1-7.415 0"/>
        <path fill="#FFE682" d="M33.018 10.839a3.708 3.708 0 1 1 7.415 0 3.708 3.708 0 0 1-7.415 0"/>
        <path fill="#FFD200" d="M36.725 14.546a3.708 3.708 0 1 1 7.415 0 3.708 3.708 0 0 1-7.415 0"/>
        <path fill="#FFD200" d="M44.14 14.546a3.708 3.708 0 1 1 7.416 0 3.708 3.708 0 0 1-7.415 0M29.31 14.546a3.708 3.708 0 1 1 7.415 0 3.708 3.708 0 0 1-7.415 0"/>
        <path fill="#FFE682" d="M47.848 18.254a3.708 3.708 0 1 1 7.415 0 3.708 3.708 0 0 1-7.415 0M33.018 18.254a3.708 3.708 0 1 1 7.415 0 3.708 3.708 0 0 1-7.415 0"/>
        <path fill="#FFE682" d="M40.433 18.254a3.708 3.708 0 1 1 7.415 0 3.708 3.708 0 0 1-7.415 0M25.602 18.254a3.708 3.708 0 1 1 7.415 0 3.708 3.708 0 0 1-7.415 0"/>
        <path fill="#FFD200" d="M44.14 21.962a3.708 3.708 0 1 1 7.416 0 3.708 3.708 0 0 1-7.415 0M29.31 21.962a3.708 3.708 0 1 1 7.415 0 3.708 3.708 0 0 1-7.415 0"/>
        <path fill="#FFD200" d="M51.556 21.962a3.708 3.708 0 1 1 7.415 0 3.708 3.708 0 0 1-7.415 0M36.725 21.962a3.708 3.708 0 1 1 7.415 0 3.708 3.708 0 0 1-7.415 0M21.895 21.962a3.708 3.708 0 1 1 7.415 0 3.708 3.708 0 0 1-7.415 0"/>
        <path fill="#EFF0F3" d="M55.264 73.87H25.602l-7.415-51.908h44.492z"/>
        <path fill="#F25544" d="M30.7 73.87h-3.244l-6.952-51.908h3.708zM53.41 73.87h-3.244l6.488-51.908h3.708zM36.262 73.87h-3.244L29.31 21.961h3.708zM47.848 73.87h-3.244l3.244-51.908h3.708zM38.58 73.87h3.707V21.961h-3.708z"/>
    </g>
</svg>
