<svg xmlns="http://www.w3.org/2000/svg" width="80" height="80" viewBox="0 0 80 80">
    <g fill="none" fill-rule="evenodd">
        <circle cx="40" cy="40" r="40" fill-rule="nonzero"/>
        <path fill="#FF8080" d="M72 6v19.075c0 2.772-2.239 5.02-5 5.02H48C48 16.786 58.745 6 72 6M32 30.094H13c-2.761 0-5-2.247-5-5.02V6c13.255 0 24 10.787 24 24.094"/>
        <path fill="#FFC8C8" d="M68 46.157c0 15.525-12.536 28.11-28 28.11s-28-12.585-28-28.11c0-15.525 12.536-28.11 28-28.11s28 12.585 28 28.11"/>
        <path fill="#66473C" d="M26 46.157a3.006 3.006 0 0 1-3 3.012c-1.657 0-3-1.349-3-3.012a3.006 3.006 0 0 1 3-3.012c1.657 0 3 1.349 3 3.012M60 46.157a3.006 3.006 0 0 1-3 3.012c-1.657 0-3-1.349-3-3.012a3.006 3.006 0 0 1 3-3.012c1.657 0 3 1.349 3 3.012"/>
        <path fill="#FFC8C8" d="M18 56.196h44v-10.04H18z"/>
        <path fill="#FF8080" d="M50 56.196c0 5.545-4.477 10.04-10 10.04s-10-4.495-10-10.04c0-5.545 4.477-10.04 10-10.04s10 4.495 10 10.04"/>
        <path fill="#DD4F00" d="M38 56.196a2.004 2.004 0 0 1-2 2.008c-1.105 0-2-.9-2-2.008 0-1.109.895-2.008 2-2.008s2 .9 2 2.008M46 56.196a2.004 2.004 0 0 1-2 2.008c-1.105 0-2-.9-2-2.008 0-1.109.895-2.008 2-2.008s2 .9 2 2.008"/>
    </g>
</svg>
