<svg xmlns="http://www.w3.org/2000/svg" width="80" height="80" viewBox="0 0 80 80">
    <g fill="none" fill-rule="evenodd">
        <circle cx="40" cy="40" r="40"/>
        <path fill="#EFF0F3" d="M69 40c0 17.673-14.327 32-32 32C19.326 72 5 57.673 5 40 5 22.327 19.326 8 37 8c17.673 0 32 14.327 32 32"/>
        <path fill="#FFF" d="M57.706 40c0 11.436-9.27 20.706-20.706 20.706S16.294 51.436 16.294 40 25.564 19.294 37 19.294 57.706 28.564 57.706 40"/>
        <path fill="#FFD200" d="M27.588 17.412a9.412 9.412 0 0 1-9.412 9.412 9.411 9.411 0 0 1-9.411-9.412A9.411 9.411 0 0 1 18.176 8a9.412 9.412 0 0 1 9.412 9.412"/>
        <path fill="#FFE682" d="M25.706 17.412a7.53 7.53 0 1 1-15.059 0c0-4.159 3.37-7.53 7.53-7.53a7.53 7.53 0 0 1 7.529 7.53"/>
        <path fill="#C6BFBB" d="M6.882 51.294c4.347 5.503 15.345 9.412 28.236 9.412 12.89 0 23.888-3.91 28.235-9.412H6.883z"/>
        <path fill="gray" d="M70.882 51.294h-7.53l2.725-5.448a3.765 3.765 0 0 1 3.367-2.081h5.203l-3.765 7.53z"/>
        <path fill="#C6BFBB" d="M70.882 51.294h-7.53l2.725 5.449a3.765 3.765 0 0 0 3.367 2.08h5.203l-3.765-7.529z"/>
        <path fill="gray" d="M63.353 51.294c-4.347-5.502-15.345-9.412-28.235-9.412-12.89 0-23.89 3.91-28.236 9.412h56.47z"/>
        <path fill="gray" d="M21.941 51.294a3.765 3.765 0 1 1-7.53 0 3.765 3.765 0 0 1 7.53 0"/>
        <path fill="#C6BFBB" d="M20.059 51.294a1.882 1.882 0 1 1-3.765 0 1.882 1.882 0 0 1 3.765 0M6.882 28.706c4.347 5.502 15.345 9.412 28.236 9.412 12.89 0 23.888-3.91 28.235-9.412H6.883z"/>
        <path fill="gray" d="M70.882 28.706h-7.53l2.725-5.449a3.765 3.765 0 0 1 3.367-2.08h5.203l-3.765 7.529z"/>
        <path fill="#C6BFBB" d="M70.882 28.706h-7.53l2.725 5.448a3.765 3.765 0 0 0 3.367 2.081h5.203l-3.765-7.53z"/>
        <path fill="gray" d="M63.353 28.706c-4.347-5.503-15.345-9.412-28.235-9.412-12.89 0-23.89 3.91-28.236 9.412h56.47z"/>
        <path fill="gray" d="M21.941 28.706a3.765 3.765 0 1 1-7.53 0 3.765 3.765 0 0 1 7.53 0"/>
        <path fill="#C6BFBB" d="M20.059 28.706a1.882 1.882 0 1 1-3.765 0 1.882 1.882 0 0 1 3.765 0"/>
    </g>
</svg>
