<svg xmlns="http://www.w3.org/2000/svg" width="80" height="80" viewBox="0 0 80 80">
    <g fill="none" fill-rule="evenodd">
        <path fill="#BDC7C9" d="M30 24.497s-18.877.99-20.652-19.718c-.116-1.359-1.11-2.474-2.433-2.726-1.681-.32-3.29.841-3.525 2.557C2.38 11.94 1.933 30.156 20.617 37L30 24.497zM51 24.497s18.877.99 20.652-19.718c.116-1.359 1.11-2.474 2.433-2.726 1.681-.32 3.29.841 3.525 2.557C78.62 11.94 79.067 30.156 60.383 37L51 24.497z"/>
        <path fill="#8B250A" d="M45.054 77h-9.11c-5.527 0-10.293-3.877-11.404-9.278l-5.147-25.03C16.983 30.975 25.96 20 37.955 20h5.09c11.996 0 20.971 10.974 18.562 22.693L56.46 67.722C55.349 73.122 50.583 77 45.054 77"/>
        <path fill="#000" d="M35 43a3 3 0 1 1-6.001-.001A3 3 0 0 1 35 43M52 43a3 3 0 1 1-6.001-.001A3 3 0 0 1 52 43"/>
        <path fill="#FFE2B3" d="M47.361 58A9.668 9.668 0 0 0 40 61.376 9.672 9.672 0 0 0 32.637 58C27.315 58 23 62.253 23 67.5s4.315 9.5 9.637 9.5H47.36C52.684 77 57 72.747 57 67.5S52.684 58 47.361 58"/>
        <path fill="#5F2700" d="M36 67c0 2.76-1.343 5-3 5s-3-2.24-3-5c0-2.761 1.343-5 3-5s3 2.239 3 5M50 67c0 2.76-1.343 5-3 5s-3-2.24-3-5c0-2.761 1.343-5 3-5s3 2.239 3 5"/>
        <path fill="#8B250A" d="M14.5 34C9.559 34 5.255 36.824 3 41c2.255 4.177 6.559 7 11.5 7s9.244-2.823 11.5-7c-2.256-4.176-6.559-7-11.5-7M66.5 34c-4.941 0-9.244 2.824-11.5 7 2.256 4.177 6.559 7 11.5 7s9.245-2.823 11.5-7c-2.255-4.176-6.559-7-11.5-7"/>
    </g>
</svg>
