<svg xmlns="http://www.w3.org/2000/svg" width="80" height="80" viewBox="0 0 80 80">
    <g fill="none" fill-rule="evenodd">
        <circle cx="40" cy="40" r="40" fill-rule="nonzero"/>
        <path fill="#DD2C28" d="M69.935 24.152c0-7.78-6.307-14.087-14.087-14.087-3.89 0-7.413 1.577-9.962 4.127-4.703 4.7-16.098-.33-27.098 9.717-5.356 4.835-8.723 11.83-8.723 19.613 0 14.588 11.825 26.413 26.413 26.413 7.755 0 14.728-3.341 19.56-8.663 10.118-11.018 5.063-22.446 9.77-27.157a14.043 14.043 0 0 0 4.127-9.963"/>
        <path fill="#FFE2B3" fill-rule="nonzero" d="M71.696 24.152a15.8 15.8 0 0 1-4.643 11.208c-1.172 1.173-1.6 2.816-2.029 7.124-.428 4.298-.647 5.879-1.302 8.357-.917 3.466-2.4 6.613-4.684 9.596a29.518 29.518 0 0 1-1.696 2.019 28.101 28.101 0 0 1-20.864 9.24c-15.56 0-28.174-12.614-28.174-28.174 0-8.08 3.422-15.61 9.296-20.913.64-.585 1.292-1.13 1.954-1.638 2.985-2.287 6.133-3.773 9.601-4.691 2.48-.656 4.062-.875 8.361-1.304 4.309-.43 5.952-.857 7.125-2.03a15.802 15.802 0 0 1 11.207-4.642c8.753 0 15.848 7.095 15.848 15.848zm-3.521 0c0-6.808-5.52-12.327-12.327-12.327a12.28 12.28 0 0 0-8.717 3.612c-1.972 1.971-4.12 2.53-9.265 3.044-4.109.41-5.575.612-7.81 1.204-3.034.803-5.76 2.09-8.36 4.081a26.11 26.11 0 0 0-1.728 1.45 24.58 24.58 0 0 0-8.143 18.306c0 13.615 11.038 24.653 24.653 24.653 7.047 0 13.611-2.97 18.264-8.094a26.065 26.065 0 0 0 1.5-1.785c1.989-2.598 3.273-5.322 4.075-8.355.59-2.234.793-3.699 1.203-7.806.512-5.145 1.072-7.293 3.043-9.265a12.28 12.28 0 0 0 3.612-8.718z"/>
        <path fill="#FFF" d="M47.044 27.674a5.283 5.283 0 1 0 10.566 0 5.283 5.283 0 0 0-10.566 0"/>
    </g>
</svg>
